# xmcd CD database file
#
# Track frame offsets:
#	150
#	29735
#	45033
#	76186
#	104028
#	142857
#	160034
#	201599
#	229380
#	249312
#
# Disc length: 3688 seconds
#
# Revision: 0
# Processed by: cddbd v1.5.1PL0 Copyright (c) Steve Scherf et al.
# Submitted via: CDex 1.51
#
DISCID=7e0e660a
DTITLE=Gato Libre - Strange Village
DYEAR=2005
DGENRE=Jazz
TTITLE0=Morning Mist
TTITLE1=Gentle Journey
TTITLE2=Strange Villege
TTITLE3=Welcome Party
TTITLE4=Dialogue
TTITLE5=Dance
TTITLE6=Dreaming a Lot
TTITLE7=Then, Normal Life
TTITLE8=Journey Again
TTITLE9=Wasteland of Peat
EXTD=YEAR: 2005
EXTT0=
EXTT1=
EXTT2=
EXTT3=
EXTT4=
EXTT5=
EXTT6=
EXTT7=
EXTT8=
EXTT9=
PLAYORDER=
